<svg xmlns="http://www.w3.org/2000/svg" xmlns:xlink="http://www.w3.org/1999/xlink" width="176" height="26.617" viewBox="0 0 176 26.617"><defs><clipPath id="a"><path d="M0-184.972H176v-26.617H0Z" transform="translate(0 211.589)" fill="none"/></clipPath></defs><g transform="translate(0 211.589)"><path d="M187.753-200.936h4.779v-10.652h-4.779Z" transform="translate(-164.134 -0.001)" fill="#fff"/><path d="M187.752-78.27h4.779V-88.922h-4.779Z" transform="translate(-164.134 -107.236)" fill="#fff"/><g transform="translate(0 -211.589)" clip-path="url(#a)"><g transform="translate(54.189 0.009)"><path d="M-70.489,0c5.8,0,9.274,3.3,9.274,7.933,0,4.674-3.478,7.97-9.274,7.97H-75.85V26.064h-4.782V0Zm0,11.447c2.862,0,4.384-1.521,4.384-3.514s-1.522-3.477-4.384-3.477H-75.85v6.991Z" transform="translate(80.632)" fill="#fff"/></g></g><path d="M745.91-129.946h-4.782v-18.077h4.782Z" transform="translate(-647.897 -55.57)" fill="#fff"/><g transform="translate(0 -211.589)" clip-path="url(#a)"><g transform="translate(105.911 1.271)"><path d="M-50.1-126.042c0,1.775.834,2.753,2.282,2.753a5.9,5.9,0,0,0,1.817-.356l2.567,3.472a9.2,9.2,0,0,1-4.709,1.34c-4.312,0-6.739-2.463-6.739-6.847v-7h-2.428v-4.779h2.428v-6.706l4.782-.019v6.725h5.223l-3.419,4.779h-1.8Z" transform="translate(57.314 144.179)" fill="#fff"/></g><g transform="translate(122.158 7.453)"><path d="M-123.1-52.868v11.013h-4.782v-10c0-2.536-1.448-4.238-3.658-4.238-2.717,0-4.492,1.811-4.492,6.231v8.006h-4.782V-59.933h4.782v1.63a7.7,7.7,0,0,1,5.687-2.174c4.348,0,7.246,3.116,7.246,7.608" transform="translate(140.819 60.476)" fill="#fff"/></g><g transform="translate(143.021 7.453)"><path d="M-128.647-75.529h-13.766a4.68,4.68,0,0,0,4.528,4.2,4.618,4.618,0,0,0,4.492-2.391l3.977,1.551a8.934,8.934,0,0,1-8.468,4.934,9.182,9.182,0,0,1-9.274-9.564,9.229,9.229,0,0,1,9.346-9.6,9.21,9.21,0,0,1,9.166,9.238Zm-13.622-3.37h8.731a4.208,4.208,0,0,0-4.275-3.333,4.538,4.538,0,0,0-4.456,3.333" transform="translate(147.159 86.398)" fill="#fff"/></g><g transform="translate(73.6 7.396)"><path d="M-11.727-122.549a5.029,5.029,0,0,1-1.687-4.039,4.858,4.858,0,0,1,2.206-4.282,11.35,11.35,0,0,1,4.283-1.493l5.094-.941a3.352,3.352,0,0,0-.811-2.336,2.765,2.765,0,0,0-2.142-.778,3,3,0,0,0-1.979.7,3.12,3.12,0,0,0-1.071,1.9h-4.9a7.1,7.1,0,0,1,1.509-3.536,7.291,7.291,0,0,1,2.888-2.126,9.372,9.372,0,0,1,3.585-.7,10.446,10.446,0,0,1,3.115.454,6.834,6.834,0,0,1,2.5,1.362,5.412,5.412,0,0,1,1.509,2.109,8.933,8.933,0,0,1,.584,2.45q.113,1.249.114,3.229v9.084H-1.863v-2.369a3.8,3.8,0,0,1-1.46,1.752A7.236,7.236,0,0,1-7.412-121.1a6.4,6.4,0,0,1-4.315-1.444m7.787-2.839a3.29,3.29,0,0,0,1.687-1.59,7.627,7.627,0,0,0,.519-2.791l-3.861.746a8.233,8.233,0,0,0-1.477.422,3.157,3.157,0,0,0-.892.552,1.775,1.775,0,0,0-.551,1.3,1.569,1.569,0,0,0,.681,1.379,3.017,3.017,0,0,0,1.752.471,4.85,4.85,0,0,0,2.141-.487" transform="translate(13.414 140.183)" fill="#fff"/></g></g><path d="M1313.9-129.946h-4.782v-18.077h4.782Z" transform="translate(-1144.433 -55.57)" fill="#fff"/><path d="M791.538-143.245h4.779v-4.779h-4.779Z" transform="translate(-691.966 -55.569)" fill="#ff5f1e"/><path d="M1361.1-143.245h4.779v-4.779H1361.1Z" transform="translate(-1189.88 -55.569)" fill="#ff5f1e"/><g transform="translate(29.504 -211.589)"><path d="M-65.814,0l-9.471,13.041,9.465,13.042h6.079l-9.5-13.042L-59.868,0Z" transform="translate(75.285)" fill="#fff"/></g><path d="M0-200.936H4.779v-10.652H0Z" transform="translate(0 -0.001)" fill="#fff"/><path d="M0-78.269H4.779V-88.921H0Z" transform="translate(0 -107.237)" fill="#fff"/><g transform="translate(5.885 -211.589)"><path d="M-65.814,0l-9.471,13.041,9.465,13.042h6.079l-9.5-13.042L-59.868,0Z" transform="translate(75.285)" fill="#fff"/></g></g></svg>